<svg width="20" height="21" viewBox="0 0 20 21" fill="none" xmlns="http://www.w3.org/2000/svg">
<rect width="20" height="21" fill="#F5F5F5"/>
<rect id="Rectangle 25" x="-165" y="-174" width="5182" height="1306" fill="#393939"/>
<g id="AI ASSIST - Start">
<rect width="376" height="1024" transform="translate(-12 -5)" fill="#E5E5E5"/>
<g id="TOP CHROME">
<g id="Group 259">
<g id="Group 257">
<rect id="Rectangle 12" x="-12" y="-5" width="376" height="48" fill="#E5E5E5"/>
</g>
</g>
<g id="Avatar">
<path id="Subtract" d="M0 10.3137C0 4.79087 4.47715 0.313721 10 0.313721C15.5228 0.313721 20 4.79087 20 10.3137C20 15.8366 15.5228 20.3137 10 20.3137C4.47715 20.3137 0 15.8366 0 10.3137Z" fill="#E21836"/>
<path id="Subtract_2" d="M8.45703 13.8137H4.58008V6.81177H5.74219V12.8323H8.45703V13.8137ZM15.4102 13.8137H14.1406L10.7959 8.66724C10.7113 8.53703 10.6413 8.40194 10.5859 8.26196H10.5566C10.5827 8.4117 10.5957 8.73234 10.5957 9.22388V13.8137H9.47266V6.81177H10.8252L14.0576 11.8362C14.1943 12.0445 14.2822 12.1877 14.3213 12.2659H14.3408C14.3083 12.0803 14.292 11.7662 14.292 11.3235V6.81177H15.4102V13.8137Z" fill="white"/>
</g>
</g>
</g>
</svg>
